<?xml version="1.0" encoding="utf-8"?>
<!-- Generator: Adobe Illustrator 16.0.0, SVG Export Plug-In . SVG Version: 6.00 Build 0)  -->
<!DOCTYPE svg PUBLIC "-//W3C//DTD SVG 1.1//EN" "http://www.w3.org/Graphics/SVG/1.1/DTD/svg11.dtd">
<svg version="1.1" id="Layer_1" xmlns="http://www.w3.org/2000/svg" xmlns:xlink="http://www.w3.org/1999/xlink" x="0px" y="0px"
	 width="200px" height="47px" viewBox="0 0 200 47" enable-background="new 0 0 200 47" xml:space="preserve">
<g>
	<path fill="#FFFFFF" d="M2.312,22.119h1.096v-1.382c0-1.439,0.183-2.584,0.548-3.433c0.365-0.849,0.983-1.466,1.855-1.854
		s2.065-0.583,3.584-0.583c2.686,0,4.03,0.658,4.03,1.973c0,0.427-0.14,0.793-0.421,1.096c-0.281,0.303-0.613,0.455-0.995,0.455
		c-0.18,0-0.49-0.033-0.928-0.102c-0.438-0.067-0.81-0.101-1.113-0.101c-0.832,0-1.366,0.245-1.602,0.733
		c-0.237,0.49-0.354,1.189-0.354,2.1v1.096h1.13c1.754,0,2.631,0.528,2.631,1.585c0,0.753-0.233,1.231-0.7,1.433
		S9.961,25.44,9.14,25.44H8.01v12.193c0,0.911-0.216,1.604-0.649,2.083c-0.433,0.479-0.993,0.717-1.678,0.717
		c-0.652,0-1.195-0.239-1.627-0.717c-0.433-0.478-0.649-1.172-0.649-2.083V25.44H2.141c-0.686,0-1.214-0.155-1.585-0.465
		C0.186,24.667,0,24.265,0,23.77C0,22.671,0.771,22.119,2.312,22.119z"/>
	<path fill="#FFFFFF" d="M25.544,32.206h-9.006c0.012,1.045,0.223,1.967,0.632,2.765c0.411,0.799,0.956,1.4,1.636,1.805
		c0.68,0.405,1.431,0.607,2.252,0.607c0.55,0,1.054-0.065,1.509-0.194c0.456-0.13,0.897-0.332,1.325-0.608
		c0.427-0.275,0.82-0.571,1.181-0.885c0.359-0.314,0.826-0.742,1.399-1.282c0.236-0.203,0.574-0.303,1.012-0.303
		c0.472,0,0.854,0.129,1.147,0.388c0.292,0.258,0.438,0.624,0.438,1.096c0,0.416-0.164,0.902-0.49,1.458
		c-0.326,0.557-0.818,1.091-1.476,1.603c-0.658,0.511-1.483,0.936-2.479,1.274c-0.996,0.337-2.139,0.505-3.432,0.505
		c-2.957,0-5.257-0.844-6.898-2.53c-1.641-1.687-2.462-3.974-2.462-6.864c0-1.361,0.202-2.624,0.607-3.787
		c0.405-1.163,0.995-2.162,1.771-2.993s1.731-1.47,2.867-1.914c1.136-0.443,2.395-0.667,3.778-0.667
		c1.799,0,3.342,0.379,4.629,1.139c1.288,0.759,2.251,1.74,2.893,2.943s0.962,2.428,0.962,3.676c0,1.158-0.333,1.909-0.995,2.251
		C27.68,32.034,26.748,32.206,25.544,32.206z M16.538,29.59h8.349c-0.112-1.574-0.537-2.751-1.274-3.533s-1.706-1.172-2.909-1.172
		c-1.147,0-2.088,0.397-2.825,1.189C17.142,26.866,16.696,28.039,16.538,29.59z"/>
	<path fill="#FFFFFF" d="M45.032,32.206h-9.006c0.012,1.045,0.223,1.967,0.633,2.765c0.41,0.799,0.956,1.4,1.635,1.805
		c0.681,0.405,1.431,0.607,2.252,0.607c0.551,0,1.054-0.065,1.51-0.194c0.457-0.13,0.896-0.332,1.326-0.608
		c0.427-0.275,0.821-0.571,1.181-0.885c0.36-0.314,0.824-0.742,1.399-1.282c0.234-0.203,0.573-0.303,1.01-0.303
		c0.472,0,0.854,0.129,1.148,0.388c0.291,0.258,0.437,0.624,0.437,1.096c0,0.416-0.164,0.902-0.49,1.458
		c-0.325,0.557-0.818,1.091-1.475,1.603c-0.658,0.511-1.484,0.936-2.479,1.274c-0.995,0.337-2.14,0.505-3.432,0.505
		c-2.957,0-5.258-0.844-6.898-2.53c-1.642-1.687-2.462-3.974-2.462-6.864c0-1.361,0.202-2.624,0.607-3.787
		c0.405-1.163,0.995-2.162,1.771-2.993c0.775-0.832,1.73-1.47,2.866-1.914c1.136-0.443,2.395-0.667,3.778-0.667
		c1.799,0,3.343,0.379,4.631,1.139c1.287,0.759,2.251,1.74,2.893,2.943c0.643,1.203,0.961,2.428,0.961,3.676
		c0,1.158-0.332,1.909-0.995,2.251C47.169,32.034,46.235,32.206,45.032,32.206z M36.027,29.59h8.348
		c-0.112-1.574-0.537-2.751-1.274-3.533c-0.735-0.782-1.707-1.172-2.91-1.172c-1.146,0-2.088,0.397-2.825,1.189
		S36.184,28.039,36.027,29.59z"/>
	<path fill="#FFFFFF" d="M66.494,34.414c0,1.271-0.31,2.358-0.927,3.263c-0.618,0.905-1.532,1.591-2.742,2.057
		c-1.209,0.466-2.679,0.701-4.41,0.701c-1.653,0-3.07-0.253-4.25-0.759c-1.18-0.506-2.052-1.138-2.614-1.898
		c-0.562-0.759-0.844-1.521-0.844-2.285c0-0.506,0.18-0.939,0.54-1.299c0.36-0.359,0.815-0.54,1.366-0.54
		c0.483,0,0.854,0.118,1.113,0.354c0.257,0.237,0.506,0.568,0.741,0.995c0.472,0.821,1.036,1.434,1.694,1.839
		c0.658,0.405,1.555,0.607,2.689,0.607c0.92,0,1.679-0.205,2.267-0.615c0.589-0.41,0.885-0.879,0.885-1.408
		c0-0.81-0.306-1.399-0.919-1.771c-0.612-0.371-1.622-0.725-3.027-1.062c-1.585-0.394-2.876-0.806-3.871-1.239
		s-1.79-1.004-2.384-1.712c-0.596-0.708-0.894-1.58-0.894-2.615c0-0.921,0.275-1.792,0.824-2.614
		c0.552-0.821,1.365-1.476,2.439-1.964c1.072-0.489,2.37-0.734,3.886-0.734c1.191,0,2.264,0.124,3.212,0.371
		c0.95,0.248,1.744,0.579,2.38,0.995c0.635,0.416,1.119,0.877,1.45,1.383c0.332,0.505,0.497,1,0.497,1.483
		c0,0.528-0.177,0.961-0.531,1.299s-0.857,0.506-1.509,0.506c-0.473,0-0.876-0.135-1.208-0.404
		c-0.332-0.269-0.709-0.675-1.138-1.215c-0.347-0.45-0.76-0.809-1.231-1.079c-0.471-0.27-1.113-0.405-1.923-0.405
		c-0.831,0-1.523,0.177-2.075,0.531c-0.55,0.354-0.825,0.795-0.825,1.324c0,0.483,0.201,0.88,0.608,1.189
		c0.404,0.309,0.948,0.565,1.634,0.768c0.686,0.202,1.632,0.449,2.833,0.741c1.426,0.349,2.593,0.765,3.499,1.248
		c0.906,0.484,1.591,1.054,2.056,1.712C66.259,32.819,66.494,33.571,66.494,34.414z"/>
	<path fill="#FFFFFF" d="M69.606,22.119h0.506v-2.766c0-0.742,0.019-1.324,0.059-1.746c0.04-0.421,0.149-0.785,0.329-1.088
		c0.18-0.315,0.438-0.57,0.776-0.767c0.337-0.197,0.713-0.295,1.129-0.295c0.584,0,1.113,0.219,1.585,0.657
		c0.315,0.293,0.514,0.649,0.599,1.072c0.083,0.421,0.126,1.02,0.126,1.795v3.137h1.687c0.652,0,1.15,0.155,1.493,0.464
		c0.342,0.309,0.514,0.705,0.514,1.188c0,0.618-0.245,1.051-0.734,1.299c-0.491,0.247-1.189,0.371-2.1,0.371h-0.859v8.466
		c0,0.72,0.025,1.273,0.075,1.661c0.05,0.388,0.188,0.704,0.404,0.944c0.217,0.241,0.576,0.363,1.071,0.363
		c0.27,0,0.636-0.048,1.094-0.143c0.461-0.096,0.821-0.144,1.08-0.144c0.371,0,0.705,0.149,1.005,0.447
		c0.298,0.298,0.445,0.667,0.445,1.105c0,0.742-0.405,1.309-1.215,1.703s-1.973,0.591-3.491,0.591c-1.439,0-2.532-0.242-3.273-0.726
		c-0.74-0.484-1.228-1.153-1.457-2.007c-0.231-0.854-0.345-1.995-0.345-3.424v-8.836H69.5c-0.663,0-1.169-0.158-1.517-0.472
		c-0.347-0.314-0.523-0.714-0.523-1.198c0-0.483,0.182-0.88,0.548-1.188C68.377,22.275,68.91,22.119,69.606,22.119z"/>
	<path fill="#FFFFFF" d="M85.183,24.464v15.617c0,1.112-0.037,2.021-0.11,2.724c-0.072,0.702-0.177,1.211-0.312,1.526
		c-0.764,1.957-2.389,2.935-4.874,2.935c-1.394,0-2.45-0.192-3.169-0.574c-0.719-0.382-1.079-0.939-1.079-1.669
		c0-0.54,0.164-0.981,0.49-1.325c0.326-0.343,0.753-0.514,1.282-0.514c0.067,0,0.175,0.009,0.328,0.025
		c0.153,0.017,0.375,0.037,0.675,0.059c0.298,0.022,0.503,0.034,0.615,0.034c0.617,0,1.032-0.241,1.24-0.725
		c0.208-0.483,0.312-1.349,0.312-2.597V24.464c0-0.911,0.213-1.597,0.643-2.058c0.428-0.46,0.989-0.691,1.687-0.691
		c0.674,0,1.222,0.227,1.644,0.683C84.975,22.854,85.183,23.542,85.183,24.464z"/>
	<path fill="#FFFFFF" d="M101.719,32.206h-9.006c0.012,1.045,0.223,1.967,0.633,2.765c0.41,0.799,0.956,1.4,1.636,1.805
		c0.679,0.405,1.429,0.607,2.251,0.607c0.551,0,1.054-0.065,1.51-0.194c0.456-0.13,0.896-0.332,1.324-0.608
		c0.428-0.275,0.823-0.571,1.183-0.885c0.36-0.314,0.824-0.742,1.398-1.282c0.236-0.203,0.573-0.303,1.012-0.303
		c0.471,0,0.854,0.129,1.146,0.388s0.438,0.624,0.438,1.096c0,0.416-0.164,0.902-0.489,1.458c-0.326,0.557-0.819,1.091-1.478,1.603
		c-0.656,0.511-1.483,0.936-2.477,1.274c-0.995,0.337-2.141,0.505-3.433,0.505c-2.956,0-5.257-0.844-6.898-2.53
		c-1.64-1.687-2.462-3.974-2.462-6.864c0-1.361,0.202-2.624,0.607-3.787c0.405-1.163,0.997-2.162,1.771-2.993
		c0.776-0.832,1.732-1.47,2.867-1.914c1.136-0.443,2.395-0.667,3.777-0.667c1.799,0,3.343,0.379,4.63,1.139
		c1.287,0.759,2.253,1.74,2.894,2.943c0.642,1.203,0.961,2.428,0.961,3.676c0,1.158-0.332,1.909-0.995,2.251
		C103.854,32.034,102.922,32.206,101.719,32.206z M92.713,29.59h8.349c-0.111-1.574-0.536-2.751-1.274-3.533
		s-1.706-1.172-2.909-1.172c-1.147,0-2.088,0.397-2.825,1.189C93.317,26.866,92.871,28.039,92.713,29.59z"/>
	<path fill="#FFFFFF" d="M124.834,25.088v13.374c0,1.529-0.164,2.844-0.49,3.946c-0.326,1.102-0.849,2.013-1.569,2.732
		c-0.719,0.72-1.663,1.254-2.824,1.603c-1.164,0.35-2.613,0.523-4.343,0.523c-1.585,0-3.002-0.223-4.25-0.667
		c-1.248-0.444-2.209-1.017-2.884-1.72c-0.675-0.703-1.012-1.425-1.012-2.167c0-0.562,0.191-1.021,0.574-1.375
		c0.382-0.354,0.844-0.531,1.383-0.531c0.674,0,1.265,0.298,1.771,0.894c0.249,0.304,0.503,0.61,0.767,0.919
		c0.264,0.309,0.555,0.574,0.877,0.793c0.321,0.22,0.705,0.382,1.155,0.489c0.45,0.107,0.967,0.161,1.55,0.161
		c1.191,0,2.116-0.166,2.774-0.497c0.658-0.332,1.119-0.795,1.383-1.392c0.265-0.597,0.419-1.234,0.465-1.915
		c0.044-0.68,0.078-1.773,0.102-3.28c-0.708,0.989-1.526,1.743-2.454,2.26c-0.928,0.518-2.032,0.776-3.312,0.776
		c-1.542,0-2.889-0.394-4.04-1.181c-1.152-0.787-2.038-1.889-2.656-3.306c-0.617-1.417-0.927-3.052-0.927-4.908
		c0-1.383,0.19-2.631,0.565-3.744c0.376-1.113,0.914-2.052,1.61-2.816c0.696-0.764,1.501-1.34,2.412-1.729
		c0.913-0.387,1.912-0.582,3.002-0.582c1.304,0,2.436,0.25,3.392,0.75c0.954,0.5,1.843,1.285,2.663,2.354v-0.625
		c0-0.797,0.196-1.417,0.59-1.854c0.393-0.438,0.899-0.658,1.517-0.658c0.887,0,1.479,0.289,1.771,0.869
		S124.834,23.997,124.834,25.088z M111.494,30.923c0,1.867,0.407,3.278,1.223,4.233s1.871,1.433,3.163,1.433
		c0.765,0,1.485-0.205,2.167-0.615c0.681-0.41,1.234-1.029,1.662-1.854c0.429-0.827,0.642-1.83,0.642-3.011
		c0-1.878-0.413-3.34-1.241-4.385c-0.825-1.046-1.912-1.569-3.261-1.569c-1.316,0-2.37,0.5-3.164,1.501
		C111.891,27.657,111.494,29.079,111.494,30.923z"/>
	<path fill="#FFFFFF" d="M140.444,32.206h-9.006c0.011,1.045,0.222,1.967,0.632,2.765c0.408,0.799,0.956,1.4,1.634,1.805
		c0.68,0.405,1.431,0.607,2.252,0.607c0.553,0,1.055-0.065,1.511-0.194c0.455-0.13,0.896-0.332,1.324-0.608
		c0.427-0.275,0.821-0.571,1.181-0.885c0.36-0.314,0.826-0.742,1.399-1.282c0.236-0.203,0.574-0.303,1.012-0.303
		c0.472,0,0.855,0.129,1.147,0.388s0.438,0.624,0.438,1.096c0,0.416-0.165,0.902-0.491,1.458c-0.326,0.557-0.818,1.091-1.476,1.603
		c-0.658,0.511-1.484,0.936-2.479,1.274c-0.995,0.337-2.139,0.505-3.432,0.505c-2.957,0-5.257-0.844-6.898-2.53
		c-1.641-1.687-2.462-3.974-2.462-6.864c0-1.361,0.201-2.624,0.607-3.787c0.405-1.163,0.995-2.162,1.771-2.993
		c0.775-0.832,1.731-1.47,2.867-1.914c1.135-0.443,2.394-0.667,3.778-0.667c1.799,0,3.342,0.379,4.629,1.139
		c1.288,0.759,2.252,1.74,2.894,2.943c0.641,1.203,0.962,2.428,0.962,3.676c0,1.158-0.332,1.909-0.997,2.251
		C142.58,32.034,141.647,32.206,140.444,32.206z M131.438,29.59h8.348c-0.113-1.574-0.537-2.751-1.273-3.533
		c-0.737-0.782-1.707-1.172-2.909-1.172c-1.149,0-2.088,0.397-2.827,1.189C132.042,26.866,131.595,28.039,131.438,29.59z"/>
	<path fill="#FFFFFF" d="M149.476,24.582l3.729,10.457l4.012-10.911c0.315-0.878,0.624-1.499,0.927-1.864
		c0.305-0.366,0.764-0.548,1.384-0.548c0.584,0,1.083,0.196,1.491,0.59c0.41,0.394,0.615,0.849,0.615,1.366
		c0,0.203-0.037,0.438-0.109,0.708c-0.072,0.27-0.158,0.523-0.253,0.759c-0.097,0.236-0.206,0.506-0.329,0.81l-4.421,10.961
		c-0.124,0.316-0.284,0.714-0.48,1.198c-0.196,0.484-0.416,0.897-0.658,1.24c-0.242,0.343-0.54,0.61-0.892,0.801
		c-0.354,0.19-0.786,0.287-1.291,0.287c-0.651,0-1.173-0.149-1.561-0.447c-0.386-0.298-0.675-0.624-0.858-0.978
		c-0.184-0.354-0.497-1.054-0.937-2.1l-4.386-10.843c-0.102-0.27-0.205-0.54-0.312-0.81c-0.108-0.27-0.197-0.545-0.271-0.826
		c-0.074-0.281-0.109-0.523-0.109-0.725c0-0.315,0.095-0.627,0.287-0.937c0.19-0.31,0.455-0.562,0.792-0.759
		c0.338-0.197,0.705-0.294,1.096-0.294c0.764,0,1.29,0.219,1.575,0.657C148.808,22.81,149.127,23.548,149.476,24.582z"/>
	<path fill="#FFFFFF" d="M176.301,32.206h-9.005c0.011,1.045,0.222,1.967,0.632,2.765c0.409,0.799,0.956,1.4,1.634,1.805
		c0.68,0.405,1.431,0.607,2.251,0.607c0.553,0,1.055-0.065,1.511-0.194c0.456-0.13,0.897-0.332,1.324-0.608
		c0.427-0.275,0.821-0.571,1.181-0.885c0.359-0.314,0.826-0.742,1.399-1.282c0.236-0.203,0.574-0.303,1.012-0.303
		c0.471,0,0.854,0.129,1.146,0.388c0.293,0.258,0.439,0.624,0.439,1.096c0,0.416-0.166,0.902-0.491,1.458
		c-0.326,0.557-0.818,1.091-1.476,1.603c-0.658,0.511-1.484,0.936-2.479,1.274c-0.996,0.337-2.14,0.505-3.433,0.505
		c-2.957,0-5.257-0.844-6.897-2.53c-1.642-1.687-2.462-3.974-2.462-6.864c0-1.361,0.2-2.624,0.607-3.787
		c0.405-1.163,0.995-2.162,1.771-2.993s1.731-1.47,2.866-1.914c1.135-0.443,2.395-0.667,3.777-0.667
		c1.799,0,3.344,0.379,4.631,1.139s2.251,1.74,2.893,2.943c0.642,1.203,0.961,2.428,0.961,3.676c0,1.158-0.332,1.909-0.996,2.251
		C178.438,32.034,177.503,32.206,176.301,32.206z M167.295,29.59h8.348c-0.112-1.574-0.537-2.751-1.274-3.533
		c-0.737-0.782-1.706-1.172-2.911-1.172c-1.146,0-2.087,0.397-2.825,1.189C167.899,26.866,167.453,28.039,167.295,29.59z"/>
	<path fill="#FFFFFF" d="M187.121,24.262v0.556c0.81-1.068,1.694-1.853,2.654-2.353c0.961-0.501,2.066-0.75,3.313-0.75
		c1.214,0,2.299,0.264,3.253,0.793c0.956,0.529,1.67,1.276,2.144,2.243c0.304,0.562,0.5,1.169,0.59,1.821
		c0.09,0.652,0.135,1.484,0.135,2.496v8.568c0,0.921-0.211,1.619-0.632,2.091c-0.421,0.472-0.97,0.708-1.644,0.708
		c-0.686,0-1.243-0.243-1.669-0.726c-0.427-0.484-0.641-1.175-0.641-2.075V29.96c0-1.517-0.211-2.679-0.633-3.483
		c-0.421-0.804-1.262-1.206-2.521-1.206c-0.822,0-1.57,0.245-2.243,0.734c-0.675,0.489-1.169,1.161-1.484,2.016
		c-0.224,0.685-0.338,1.967-0.338,3.845v5.769c0,0.933-0.217,1.634-0.648,2.099c-0.434,0.466-0.993,0.701-1.678,0.701
		c-0.664,0-1.21-0.242-1.636-0.726c-0.425-0.484-0.641-1.175-0.641-2.074V24.329c0-0.877,0.191-1.532,0.574-1.964
		c0.382-0.433,0.905-0.649,1.568-0.649c0.404,0,0.77,0.096,1.096,0.287c0.326,0.191,0.586,0.478,0.785,0.859
		C187.024,23.244,187.121,23.71,187.121,24.262z"/>
	<g>
		
			<ellipse transform="matrix(-0.1311 0.9914 -0.9914 -0.1311 109.764 -73.9825)" fill="#9D2379" cx="87.303" cy="11.11" rx="6.18" ry="5.529"/>
		<polygon fill="#9D2379" points="86.199,18.293 85.432,17.945 84.666,17.598 85.35,17.108 86.034,16.618 86.116,17.456 		"/>
	</g>
	<g>
		<ellipse fill="#CF1D60" cx="75.655" cy="5.768" rx="4.602" ry="5.143"/>
		<polygon fill="#CF1D60" points="75.771,11.798 76.441,11.596 77.112,11.393 76.602,10.914 76.09,10.434 75.93,11.117 		"/>
	</g>
</g>
</svg>
